<svg width="15" height="14" viewBox="0 0 15 14" fill="none" xmlns="http://www.w3.org/2000/svg">
<g clip-path="url(#clip0_1545_8743)">
<path d="M12.81 5.3999C13.19 5.7399 13.51 6.0699 13.75 6.3299C13.9158 6.51365 14.0076 6.75238 14.0076 6.9999C14.0076 7.24742 13.9158 7.48615 13.75 7.6699C12.7 8.7999 10.31 10.9999 7.52 10.9999H7.12" stroke="#000001" stroke-linecap="round" stroke-linejoin="round"/>
<path d="M4.38999 10.13C3.23162 9.48125 2.18496 8.65067 1.28999 7.67C1.12415 7.48625 1.03235 7.24752 1.03235 7C1.03235 6.75248 1.12415 6.51375 1.28999 6.33C2.33999 5.2 4.72999 3 7.51999 3C8.61976 3.02299 9.6961 3.32216 10.65 3.87" stroke="#000001" stroke-linecap="round" stroke-linejoin="round"/>
<path d="M13.02 1.5L2.01996 12.5" stroke="#000001" stroke-linecap="round" stroke-linejoin="round"/>
<path d="M6.10996 8.41C5.73437 8.03665 5.52219 7.52958 5.51996 7C5.51996 6.46957 5.73067 5.96086 6.10574 5.58579C6.48082 5.21071 6.98953 5 7.51996 5C8.04954 5.00223 8.55661 5.21441 8.92996 5.59" stroke="#000001" stroke-linecap="round" stroke-linejoin="round"/>
<path d="M9.25996 8C9.08194 8.3043 8.82665 8.55614 8.51996 8.73" stroke="#000001" stroke-linecap="round" stroke-linejoin="round"/>
</g>
<defs>
<clipPath id="clip0_1545_8743">
<rect width="14" height="14" fill="white" transform="translate(0.519958)"/>
</clipPath>
</defs>
</svg>
