<svg width="14" height="14" viewBox="0 0 14 14" fill="none" xmlns="http://www.w3.org/2000/svg">
<path d="M13.23 6.33C13.3959 6.51375 13.4877 6.75248 13.4877 7C13.4877 7.24752 13.3959 7.48625 13.23 7.67C12.18 8.8 9.79003 11 7.00003 11C4.21003 11 1.82003 8.8 0.770029 7.67C0.604189 7.48625 0.51239 7.24752 0.51239 7C0.51239 6.75248 0.604189 6.51375 0.770029 6.33C1.82003 5.2 4.21003 3 7.00003 3C9.79003 3 12.18 5.2 13.23 6.33Z" stroke="#000001" stroke-linecap="round" stroke-linejoin="round"/>
<path d="M7 9C8.10457 9 9 8.10457 9 7C9 5.89543 8.10457 5 7 5C5.89543 5 5 5.89543 5 7C5 8.10457 5.89543 9 7 9Z" stroke="#000001" stroke-linecap="round" stroke-linejoin="round"/>
</svg>
