<svg width="15" height="14" viewBox="0 0 15 14" fill="none" xmlns="http://www.w3.org/2000/svg">
<path d="M5.72998 2.25L6.15998 1.14C6.2325 0.952064 6.36009 0.790411 6.52603 0.676212C6.69197 0.562014 6.88854 0.500595 7.08998 0.5H7.90998C8.11142 0.500595 8.30799 0.562014 8.47393 0.676212C8.63988 0.790411 8.76746 0.952064 8.83998 1.14L9.26998 2.25L10.73 3.09L11.91 2.91C12.1065 2.88333 12.3064 2.91567 12.4845 3.00292C12.6626 3.09017 12.8107 3.22838 12.91 3.4L13.31 4.1C13.4125 4.27435 13.4597 4.47568 13.4454 4.67742C13.4311 4.87916 13.356 5.07183 13.23 5.23L12.5 6.16V7.84L13.25 8.77C13.376 8.92817 13.4511 9.12084 13.4654 9.32258C13.4797 9.52432 13.4325 9.72565 13.33 9.9L12.93 10.6C12.8307 10.7716 12.6826 10.9098 12.5045 10.9971C12.3264 11.0843 12.1265 11.1167 11.93 11.09L10.75 10.91L9.28998 11.75L8.85998 12.86C8.78746 13.0479 8.65988 13.2096 8.49393 13.3238C8.32799 13.438 8.13142 13.4994 7.92998 13.5H7.08998C6.88854 13.4994 6.69197 13.438 6.52603 13.3238C6.36009 13.2096 6.2325 13.0479 6.15998 12.86L5.72998 11.75L4.26998 10.91L3.08998 11.09C2.8935 11.1167 2.69352 11.0843 2.51546 10.9971C2.33741 10.9098 2.1893 10.7716 2.08998 10.6L1.68998 9.9C1.58748 9.72565 1.54026 9.52432 1.55454 9.32258C1.56882 9.12084 1.64394 8.92817 1.76998 8.77L2.49998 7.84V6.16L1.74998 5.23C1.62394 5.07183 1.54882 4.87916 1.53454 4.67742C1.52026 4.47568 1.56748 4.27435 1.66998 4.1L2.06998 3.4C2.1693 3.22838 2.31741 3.09017 2.49546 3.00292C2.67352 2.91567 2.8735 2.88333 3.06998 2.91L4.24998 3.09L5.72998 2.25ZM5.49998 7C5.49998 7.39556 5.61728 7.78224 5.83704 8.11114C6.0568 8.44004 6.36916 8.69638 6.73461 8.84776C7.10007 8.99913 7.5022 9.03874 7.89016 8.96157C8.27812 8.8844 8.63449 8.69392 8.91419 8.41421C9.1939 8.13451 9.38438 7.77814 9.46155 7.39018C9.53872 7.00222 9.49912 6.60009 9.34774 6.23463C9.19636 5.86918 8.94002 5.55682 8.61112 5.33706C8.28222 5.1173 7.89554 5 7.49998 5C6.96955 5 6.46084 5.21071 6.08577 5.58579C5.71069 5.96086 5.49998 6.46957 5.49998 7V7Z" stroke="#000001" stroke-linecap="round" stroke-linejoin="round"/>
</svg>
